<svg id="Layer" enable-background="new 0 0 64 64" height="512" viewBox="0 0 64 64" width="512" xmlns="http://www.w3.org/2000/svg"><circle cx="32" cy="32" fill="#ff7043" r="22"/><g fill="#012e52"><path d="m10.207 37c.095 0 .189-.007.285-.02 1.094-.156 1.854-1.169 1.698-2.263-.127-.884-.19-1.799-.19-2.717 0-.919.063-1.833.19-2.718.155-1.094-.604-2.106-1.698-2.262-1.082-.153-2.106.604-2.263 1.698-.152 1.071-.229 2.175-.229 3.282 0 1.106.077 2.211.229 3.282.143.998.999 1.718 1.978 1.718z"/><path d="m11.49 40.219c-.983.503-1.373 1.708-.871 2.691 4.128 8.074 12.32 13.09 21.381 13.09 13.233 0 24-10.767 24-24 0-13.234-10.767-24-24-24-9.061 0-17.253 5.016-21.381 13.09-.502.983-.112 2.188.871 2.691.984.503 2.188.113 2.691-.871 3.44-6.729 10.268-10.91 17.819-10.91 11.028 0 20 8.972 20 20s-8.972 20-20 20c-7.551 0-14.379-4.181-17.818-10.91-.503-.984-1.707-1.372-2.692-.871z"/><path d="m16 32c0 1.104.896 2 2 2h23.172l-4.586 4.586c-.781.781-.781 2.047 0 2.828.391.391.902.586 1.414.586s1.023-.195 1.414-.586l8-8c.781-.781.781-2.047 0-2.828l-8-8c-.781-.781-2.047-.781-2.828 0s-.781 2.047 0 2.828l4.586 4.586h-23.172c-1.104 0-2 .896-2 2z"/></g></svg>